<mxfile host="app.diagrams.net" modified="2022-08-17T16:52:16.290Z" agent="5.0 (Windows NT 10.0; Win64; x64) AppleWebKit/537.36 (KHTML, like Gecko) Chrome/104.0.0.0 Safari/537.36" etag="3g9ZLaBG3M8Onq-NTVJl" version="20.2.3" type="github">
  <diagram id="kgpKYQtTHZ0yAKxKKP6v" name="Ablaufdiagramm">
    <mxGraphModel dx="798" dy="1035" grid="1" gridSize="10" guides="1" tooltips="1" connect="1" arrows="1" fold="1" page="1" pageScale="1" pageWidth="850" pageHeight="1100" math="0" shadow="0">
      <root>
        <mxCell id="0" />
        <mxCell id="1" parent="0" />
        <mxCell id="3nuBFxr9cyL0pnOWT2aG-1" value="Spieler/main.js" style="shape=umlLifeline;perimeter=lifelinePerimeter;container=1;collapsible=0;recursiveResize=0;rounded=0;shadow=0;strokeWidth=1;" parent="1" vertex="1">
          <mxGeometry x="90" y="90" width="100" height="660" as="geometry" />
        </mxCell>
        <mxCell id="3nuBFxr9cyL0pnOWT2aG-2" value="" style="points=[];perimeter=orthogonalPerimeter;rounded=0;shadow=0;strokeWidth=1;" parent="3nuBFxr9cyL0pnOWT2aG-1" vertex="1">
          <mxGeometry x="45" y="70" width="10" height="590" as="geometry" />
        </mxCell>
        <mxCell id="yU4TBiXTZQZ8wu1HOeTJ-4" value="" style="endArrow=classic;html=1;rounded=0;horizontal=1;labelBackgroundColor=default;labelBorderColor=none;" parent="3nuBFxr9cyL0pnOWT2aG-1" edge="1">
          <mxGeometry width="50" height="50" relative="1" as="geometry">
            <mxPoint x="55" y="110" as="sourcePoint" />
            <mxPoint x="640" y="110" as="targetPoint" />
          </mxGeometry>
        </mxCell>
        <mxCell id="3nuBFxr9cyL0pnOWT2aG-5" value="Game" style="shape=umlLifeline;perimeter=lifelinePerimeter;container=1;collapsible=0;recursiveResize=0;rounded=0;shadow=0;strokeWidth=1;" parent="1" vertex="1">
          <mxGeometry x="290" y="90" width="100" height="670" as="geometry" />
        </mxCell>
        <mxCell id="3nuBFxr9cyL0pnOWT2aG-6" value="" style="points=[];perimeter=orthogonalPerimeter;rounded=0;shadow=0;strokeWidth=1;" parent="3nuBFxr9cyL0pnOWT2aG-5" vertex="1">
          <mxGeometry x="45" y="60" width="10" height="590" as="geometry" />
        </mxCell>
        <mxCell id="yU4TBiXTZQZ8wu1HOeTJ-20" value="constructor()" style="curved=1;endArrow=classic;html=1;rounded=0;labelBackgroundColor=default;labelBorderColor=none;exitX=1.069;exitY=0.322;exitDx=0;exitDy=0;exitPerimeter=0;entryX=1.138;entryY=0.407;entryDx=0;entryDy=0;entryPerimeter=0;" parent="3nuBFxr9cyL0pnOWT2aG-5" source="3nuBFxr9cyL0pnOWT2aG-6" target="3nuBFxr9cyL0pnOWT2aG-6" edge="1">
          <mxGeometry x="0.3867" y="-2" width="50" height="50" relative="1" as="geometry">
            <mxPoint x="120" y="360" as="sourcePoint" />
            <mxPoint x="170" y="310" as="targetPoint" />
            <Array as="points">
              <mxPoint x="160" y="270" />
            </Array>
            <mxPoint as="offset" />
          </mxGeometry>
        </mxCell>
        <mxCell id="yU4TBiXTZQZ8wu1HOeTJ-2" value="Gameboard" style="shape=umlLifeline;perimeter=lifelinePerimeter;container=1;collapsible=0;recursiveResize=0;rounded=0;shadow=0;strokeWidth=1;" parent="1" vertex="1">
          <mxGeometry x="490" y="90" width="100" height="670" as="geometry" />
        </mxCell>
        <mxCell id="yU4TBiXTZQZ8wu1HOeTJ-3" value="" style="points=[];perimeter=orthogonalPerimeter;rounded=0;shadow=0;strokeWidth=1;" parent="yU4TBiXTZQZ8wu1HOeTJ-2" vertex="1">
          <mxGeometry x="45" y="80" width="10" height="590" as="geometry" />
        </mxCell>
        <mxCell id="yU4TBiXTZQZ8wu1HOeTJ-11" value="constructor()" style="curved=1;endArrow=classic;html=1;rounded=0;labelBackgroundColor=default;labelBorderColor=none;exitX=0.138;exitY=0.049;exitDx=0;exitDy=0;exitPerimeter=0;" parent="yU4TBiXTZQZ8wu1HOeTJ-2" edge="1">
          <mxGeometry width="50" height="50" relative="1" as="geometry">
            <mxPoint x="41.379999999999995" y="159.99999999999997" as="sourcePoint" />
            <mxPoint x="45" y="201.09" as="targetPoint" />
            <Array as="points">
              <mxPoint x="-10" y="171" />
              <mxPoint x="10" y="200" />
            </Array>
          </mxGeometry>
        </mxCell>
        <mxCell id="yU4TBiXTZQZ8wu1HOeTJ-5" value="refresh (F5)" style="text;strokeColor=none;fillColor=none;align=left;verticalAlign=middle;spacingLeft=4;spacingRight=4;overflow=hidden;points=[[0,0.5],[1,0.5]];portConstraint=eastwest;rotatable=0;labelBackgroundColor=default;" parent="1" vertex="1">
          <mxGeometry x="417" y="173" width="208" height="30" as="geometry" />
        </mxCell>
        <mxCell id="yU4TBiXTZQZ8wu1HOeTJ-12" value="new Game()" style="endArrow=classic;html=1;rounded=0;labelBackgroundColor=default;labelBorderColor=none;" parent="1" target="3nuBFxr9cyL0pnOWT2aG-6" edge="1">
          <mxGeometry x="0.3804" y="-6" width="50" height="50" relative="1" as="geometry">
            <mxPoint x="739.5" y="338.1400000000001" as="sourcePoint" />
            <mxPoint x="363.52" y="338.1400000000001" as="targetPoint" />
            <mxPoint x="1" as="offset" />
          </mxGeometry>
        </mxCell>
        <mxCell id="yU4TBiXTZQZ8wu1HOeTJ-15" value="Output" style="shape=umlLifeline;perimeter=lifelinePerimeter;container=1;collapsible=0;recursiveResize=0;rounded=0;shadow=0;strokeWidth=1;" parent="1" vertex="1">
          <mxGeometry x="690" y="90" width="100" height="670" as="geometry" />
        </mxCell>
        <mxCell id="yU4TBiXTZQZ8wu1HOeTJ-16" value="" style="points=[];perimeter=orthogonalPerimeter;rounded=0;shadow=0;strokeWidth=1;" parent="yU4TBiXTZQZ8wu1HOeTJ-15" vertex="1">
          <mxGeometry x="45" y="80" width="10" height="590" as="geometry" />
        </mxCell>
        <mxCell id="yU4TBiXTZQZ8wu1HOeTJ-19" value="new GameBoard()" style="endArrow=classic;html=1;rounded=0;labelBackgroundColor=default;labelBorderColor=none;exitX=0.194;exitY=0.129;exitDx=0;exitDy=0;exitPerimeter=0;" parent="1" source="yU4TBiXTZQZ8wu1HOeTJ-16" target="yU4TBiXTZQZ8wu1HOeTJ-2" edge="1">
          <mxGeometry width="50" height="50" relative="1" as="geometry">
            <mxPoint x="700" y="250" as="sourcePoint" />
            <mxPoint x="500" y="190" as="targetPoint" />
          </mxGeometry>
        </mxCell>
        <mxCell id="yU4TBiXTZQZ8wu1HOeTJ-21" value="" style="endArrow=classic;html=1;rounded=0;labelBackgroundColor=default;labelBorderColor=none;" parent="1" source="yU4TBiXTZQZ8wu1HOeTJ-2" edge="1">
          <mxGeometry width="50" height="50" relative="1" as="geometry">
            <mxPoint x="510" y="390" as="sourcePoint" />
            <mxPoint x="450" y="370" as="targetPoint" />
          </mxGeometry>
        </mxCell>
      </root>
    </mxGraphModel>
  </diagram>
</mxfile>
